<svg width="126" height="126" viewBox="0 0 126 126" fill="none" xmlns="http://www.w3.org/2000/svg">
<path d="M56.0229 30.8877C57.7026 23.452 68.2974 23.452 69.9771 30.8877C71.0656 35.7069 76.5959 37.9976 80.7733 35.3597C87.2188 31.2895 94.7105 38.7812 90.6403 45.2267C88.0024 49.4041 90.2931 54.9344 95.1123 56.0229C102.548 57.7026 102.548 68.2974 95.1123 69.9771C90.2931 71.0656 88.0024 76.5959 90.6403 80.7733C94.7105 87.2188 87.2188 94.7105 80.7733 90.6403C76.5959 88.0024 71.0656 90.2931 69.9771 95.1123C68.2974 102.548 57.7026 102.548 56.0229 95.1123C54.9344 90.2931 49.4041 88.0024 45.2267 90.6403C38.7812 94.7105 31.2895 87.2188 35.3597 80.7733C37.9976 76.5959 35.7069 71.0656 30.8877 69.9771C23.452 68.2974 23.452 57.7026 30.8877 56.0229C35.7069 54.9344 37.9976 49.4041 35.3597 45.2267C31.2895 38.7812 38.7812 31.2895 45.2267 35.3597C49.4041 37.9976 54.9344 35.7069 56.0229 30.8877Z" fill="#50A9DD"/>
<path fill-rule="evenodd" clip-rule="evenodd" d="M50.5273 62.6801L53.7253 59.4821L60.1213 65.8781L72.9131 53.0862L76.1111 56.2842L60.1213 72.274L50.5273 62.6801Z" fill="white" stroke="white" stroke-width="4" stroke-linecap="round" stroke-linejoin="round"/>
</svg>
